<?xml version="1.0" standalone="no"?>
<!DOCTYPE svg PUBLIC "-//W3C//DTD SVG 20010904//EN"
 "http://www.w3.org/TR/2001/REC-SVG-20010904/DTD/svg10.dtd">
<svg version="1.0" xmlns="http://www.w3.org/2000/svg"
 width="700.000000pt" height="700.000000pt" viewBox="0 0 700.000000 700.000000"
 preserveAspectRatio="xMidYMid meet">
<metadata>
Created by potrace 1.14, written by Peter Selinger 2001-2017
</metadata>
<g transform="translate(0.000000,700.000000) scale(0.100000,-0.100000)"
fill="#000000" stroke="none">
<path d="M3210 6994 c-182 -21 -307 -40 -427 -65 -896 -185 -1685 -719 -2200
-1489 -291 -435 -473 -916 -554 -1460 -27 -177 -36 -572 -20 -772 103 -1221
834 -2293 1939 -2847 436 -218 1012 -360 1465 -361 l87 0 0 1750 0 1750 1752
0 1751 0 -6 163 c-24 649 -246 1300 -632 1851 -232 332 -552 647 -890 878
-455 310 -961 504 -1525 583 -110 16 -650 29 -740 19z"/>
<path d="M4912 1540 c-254 -67 -449 -260 -513 -509 -25 -95 -27 -259 -4 -346
8 -33 36 -103 62 -155 65 -134 169 -238 303 -303 123 -61 192 -78 315 -78 173
-1 319 49 444 149 269 217 345 559 194 872 -38 79 -59 108 -132 180 -142 143
-306 210 -506 209 -55 0 -118 -7 -163 -19z"/>
</g>
</svg>
